<svg id="visual" viewBox="0 0 5000 800" width="5000" height="800" xmlns="http://www.w3.org/2000/svg" xmlns:xlink="http://www.w3.org/1999/xlink" version="1.1"><rect x="0" y="0" width="5000" height="800" fill="#001220"></rect><path d="M0 178L92.7 190C185.3 202 370.7 226 555.8 246.8C741 267.7 926 285.3 1111.2 280.7C1296.3 276 1481.7 249 1666.8 239.8C1852 230.7 2037 239.3 2222.2 245C2407.3 250.7 2592.7 253.3 2777.8 242.5C2963 231.7 3148 207.3 3333.2 199C3518.3 190.7 3703.7 198.3 3888.8 230.2C4074 262 4259 318 4444.2 321.8C4629.3 325.7 4814.7 277.3 4907.3 253.2L5000 229L5000 0L4907.3 0C4814.7 0 4629.3 0 4444.2 0C4259 0 4074 0 3888.8 0C3703.7 0 3518.3 0 3333.2 0C3148 0 2963 0 2777.8 0C2592.7 0 2407.3 0 2222.2 0C2037 0 1852 0 1666.8 0C1481.7 0 1296.3 0 1111.2 0C926 0 741 0 555.8 0C370.7 0 185.3 0 92.7 0L0 0Z" fill="#1a9bee"></path><path d="M0 329L92.7 310.3C185.3 291.7 370.7 254.3 555.8 252.3C741 250.3 926 283.7 1111.2 273.3C1296.3 263 1481.7 209 1666.8 197.2C1852 185.3 2037 215.7 2222.2 214.8C2407.3 214 2592.7 182 2777.8 196.5C2963 211 3148 272 3333.2 274C3518.3 276 3703.7 219 3888.8 200C4074 181 4259 200 4444.2 228.7C4629.3 257.3 4814.7 295.7 4907.3 314.8L5000 334L5000 0L4907.3 0C4814.7 0 4629.3 0 4444.2 0C4259 0 4074 0 3888.8 0C3703.7 0 3518.3 0 3333.2 0C3148 0 2963 0 2777.8 0C2592.7 0 2407.3 0 2222.2 0C2037 0 1852 0 1666.8 0C1481.7 0 1296.3 0 1111.2 0C926 0 741 0 555.8 0C370.7 0 185.3 0 92.7 0L0 0Z" fill="#158fd9"></path><path d="M0 172L92.7 178.5C185.3 185 370.7 198 555.8 209.2C741 220.3 926 229.7 1111.2 229.2C1296.3 228.7 1481.7 218.3 1666.8 227.2C1852 236 2037 264 2222.2 276.8C2407.3 289.7 2592.7 287.3 2777.8 274C2963 260.7 3148 236.3 3333.2 219.5C3518.3 202.7 3703.7 193.3 3888.8 187.8C4074 182.3 4259 180.7 4444.2 198.2C4629.3 215.7 4814.7 252.3 4907.3 270.7L5000 289L5000 0L4907.3 0C4814.7 0 4629.3 0 4444.2 0C4259 0 4074 0 3888.8 0C3703.7 0 3518.3 0 3333.2 0C3148 0 2963 0 2777.8 0C2592.7 0 2407.3 0 2222.2 0C2037 0 1852 0 1666.8 0C1481.7 0 1296.3 0 1111.2 0C926 0 741 0 555.8 0C370.7 0 185.3 0 92.7 0L0 0Z" fill="#1483c5"></path><path d="M0 112L92.7 128.2C185.3 144.3 370.7 176.7 555.8 186C741 195.3 926 181.7 1111.2 172.7C1296.3 163.7 1481.7 159.3 1666.8 155.2C1852 151 2037 147 2222.2 156C2407.3 165 2592.7 187 2777.8 204.5C2963 222 3148 235 3333.2 216.5C3518.3 198 3703.7 148 3888.8 123.3C4074 98.7 4259 99.3 4444.2 108C4629.3 116.7 4814.7 133.3 4907.3 141.7L5000 150L5000 0L4907.3 0C4814.7 0 4629.3 0 4444.2 0C4259 0 4074 0 3888.8 0C3703.7 0 3518.3 0 3333.2 0C3148 0 2963 0 2777.8 0C2592.7 0 2407.3 0 2222.2 0C2037 0 1852 0 1666.8 0C1481.7 0 1296.3 0 1111.2 0C926 0 741 0 555.8 0C370.7 0 185.3 0 92.7 0L0 0Z" fill="#1477b1"></path><path d="M0 116L92.7 124.2C185.3 132.3 370.7 148.7 555.8 144C741 139.3 926 113.7 1111.2 117.2C1296.3 120.7 1481.7 153.3 1666.8 162.5C1852 171.7 2037 157.3 2222.2 160C2407.3 162.7 2592.7 182.3 2777.8 184.7C2963 187 3148 172 3333.2 155.3C3518.3 138.7 3703.7 120.3 3888.8 127.7C4074 135 4259 168 4444.2 175.8C4629.3 183.7 4814.7 166.3 4907.3 157.7L5000 149L5000 0L4907.3 0C4814.7 0 4629.3 0 4444.2 0C4259 0 4074 0 3888.8 0C3703.7 0 3518.3 0 3333.2 0C3148 0 2963 0 2777.8 0C2592.7 0 2407.3 0 2222.2 0C2037 0 1852 0 1666.8 0C1481.7 0 1296.3 0 1111.2 0C926 0 741 0 555.8 0C370.7 0 185.3 0 92.7 0L0 0Z" fill="#166b9d"></path><path d="M0 71L92.7 81.8C185.3 92.7 370.7 114.3 555.8 129.2C741 144 926 152 1111.2 149.3C1296.3 146.7 1481.7 133.3 1666.8 116C1852 98.7 2037 77.3 2222.2 82.7C2407.3 88 2592.7 120 2777.8 128.8C2963 137.7 3148 123.3 3333.2 111.3C3518.3 99.3 3703.7 89.7 3888.8 98.5C4074 107.3 4259 134.7 4444.2 137.3C4629.3 140 4814.7 118 4907.3 107L5000 96L5000 0L4907.3 0C4814.7 0 4629.3 0 4444.2 0C4259 0 4074 0 3888.8 0C3703.7 0 3518.3 0 3333.2 0C3148 0 2963 0 2777.8 0C2592.7 0 2407.3 0 2222.2 0C2037 0 1852 0 1666.8 0C1481.7 0 1296.3 0 1111.2 0C926 0 741 0 555.8 0C370.7 0 185.3 0 92.7 0L0 0Z" fill="#18608a"></path><path d="M0 71L92.7 76.2C185.3 81.3 370.7 91.7 555.8 98.7C741 105.7 926 109.3 1111.2 102.8C1296.3 96.3 1481.7 79.7 1666.8 75.2C1852 70.7 2037 78.3 2222.2 75.8C2407.3 73.3 2592.7 60.7 2777.8 51.3C2963 42 3148 36 3333.2 41.8C3518.3 47.7 3703.7 65.3 3888.8 67.2C4074 69 4259 55 4444.2 45.7C4629.3 36.3 4814.7 31.7 4907.3 29.3L5000 27L5000 0L4907.3 0C4814.7 0 4629.3 0 4444.2 0C4259 0 4074 0 3888.8 0C3703.7 0 3518.3 0 3333.2 0C3148 0 2963 0 2777.8 0C2592.7 0 2407.3 0 2222.2 0C2037 0 1852 0 1666.8 0C1481.7 0 1296.3 0 1111.2 0C926 0 741 0 555.8 0C370.7 0 185.3 0 92.7 0L0 0Z" fill="#1a5477"></path><path d="M0 73L92.7 71C185.3 69 370.7 65 555.8 54.7C741 44.3 926 27.7 1111.2 25.5C1296.3 23.3 1481.7 35.7 1666.8 47.5C1852 59.3 2037 70.7 2222.2 69.3C2407.3 68 2592.7 54 2777.8 46.8C2963 39.7 3148 39.3 3333.2 33.5C3518.3 27.7 3703.7 16.3 3888.8 15C4074 13.7 4259 22.3 4444.2 24.3C4629.3 26.3 4814.7 21.7 4907.3 19.3L5000 17L5000 0L4907.3 0C4814.7 0 4629.3 0 4444.2 0C4259 0 4074 0 3888.8 0C3703.7 0 3518.3 0 3333.2 0C3148 0 2963 0 2777.8 0C2592.7 0 2407.3 0 2222.2 0C2037 0 1852 0 1666.8 0C1481.7 0 1296.3 0 1111.2 0C926 0 741 0 555.8 0C370.7 0 185.3 0 92.7 0L0 0Z" fill="#1b4965"></path></svg>